<?xml version="1.0" encoding="UTF-8"?>
<svg id="Layer_1" xmlns="http://www.w3.org/2000/svg" xmlns:xlink="http://www.w3.org/1999/xlink" version="1.1" viewBox="0 0 400 200">
  <!-- Generator: Adobe Illustrator 29.0.1, SVG Export Plug-In . SVG Version: 2.1.0 Build 192)  -->
  <defs>
    <style>
      .st0 {
        fill: none;
      }

      .st1 {
        fill: #231f20;
      }

      .st2 {
        clip-path: url(#clippath-1);
      }

      .st3 {
        clip-path: url(#clippath-3);
      }

      .st4 {
        clip-path: url(#clippath-4);
      }

      .st5 {
        clip-path: url(#clippath-2);
      }

      .st6 {
        clip-path: url(#clippath-5);
      }

      .st7 {
        clip-path: url(#clippath);
      }
    </style>
    <clipPath id="clippath">
      <rect class="st0" x="20.2" y="69.4" width="51.7" height="51.4"/>
    </clipPath>
    <clipPath id="clippath-1">
      <rect class="st0" x="-25.7" y="-1" width="143.6" height="201.1"/>
    </clipPath>
    <clipPath id="clippath-2">
      <rect class="st0" x="-25.7" y="-1" width="143.6" height="201.1"/>
    </clipPath>
    <clipPath id="clippath-3">
      <rect class="st0" x="84.4" y="76.7" width="296.7" height="36.8"/>
    </clipPath>
    <clipPath id="clippath-4">
      <rect class="st0" x="-180" y="-637.3" width="825.2" height="1155.2"/>
    </clipPath>
    <clipPath id="clippath-5">
      <rect class="st0" x="-180" y="-637.3" width="825.2" height="1155.2"/>
    </clipPath>
  </defs>
  <g class="st7">
    <g class="st2">
      <g class="st5">
        <path class="st1" d="M57.7,116.1c-1-.7-2.1-1.5-3.1-2.2-1.8-1.3-3.6-2.6-5.3-4-1.1-.9-2.2-1.9-3.2-3-1.5-1.5-2.6-3.3-3.4-5.3-1.4-3.6-1.1-7,.9-10.2,1.4-2.1,3.1-4,5.1-5.7,3.2-2.7,6.7-5,10.4-6.9,3.9-2,8-3.6,12.3-4.7v-4.1h-26c.3.2.7.5,1,.8,2.4,2.2,3.3,5.1,2.5,8.6-.4,1.8-1.1,3.5-2.2,5-.8,1.3-1.8,2.5-2.8,3.6-2.7,3-5.8,5.4-9.3,7.4-4.5,2.5-9.1,4.3-13.9,5.3v20h43c-.5-.4-1-.8-1.5-1.3-1.5-1.1-3-2.2-4.6-3.3"/>
        <path class="st1" d="M33.5,70h-12.7v7.8c2-1.6,4.1-3.1,6.3-4.5,2-1.3,4.2-2.4,6.4-3.3"/>
        <path class="st1" d="M70.9,76.8c-7.4,2.2-14.1,5.8-20.1,10.7-1.6,1.3-3,2.7-4.3,4.4-1.1,1.4-2,3-2.5,4.7-.3,1.2-.4,2.3-.3,3.4.2,1.1.5,2.2,1.1,3.2.5,1,1.2,1.9,2,2.6,0,0,0,0,.1.1,1.1,1.1,2.3,2.1,3.5,3.1,1.6,1.2,3.3,2.5,5,3.6.2.1.4.3.6.4.5.4,1,.7,1.5,1,1.2.8,2.3,1.7,3.5,2.5,1.2.9,2.3,1.7,3.4,2.7.5.4.9.8,1.4,1.3h5.7v-44c-.2,0-.4.1-.6.2"/>
        <path class="st1" d="M41.3,87.3c1-.9,1.8-1.9,2.7-2.9.8-1,1.5-2.1,2.2-3.2.9-1.6,1.4-3.2,1.6-4.9.2-1.9-.5-3.4-2-4.4-1.4-.9-2.9-1.4-4.7-1.3-1.2,0-2.4.2-3.6.5-1.5.4-2.9.9-4.3,1.5-1.4.6-2.8,1.4-4.1,2.2-2.6,1.6-5.1,3.4-7.4,5.3-.3.2-.5.4-.8.6v17.8c4.2-1.1,8.3-2.8,12.2-5,3.1-1.7,5.8-3.8,8.3-6.2"/>
        <path class="st1" d="M24.2,124.7c.4.3.5.7.5,1.3s-.2,1-.5,1.3c-.4.3-.9.5-1.5.5h-1.2v1.5h-.7v-4.9h1.9c.6,0,1.1.2,1.5.5M23.7,126.8c.2-.2.4-.5.4-.8s-.1-.6-.4-.8c-.2-.2-.6-.3-1-.3h-1.2v2.2h1.2c.4,0,.8,0,1-.3"/>
        <path class="st1" d="M28.6,127.9h-2.6l-.5,1.2h-.7l2.2-4.9h.7l2.2,4.9h-.7l-.5-1.2ZM28.4,127.4l-1.1-2.4-1.1,2.4h2.1Z"/>
        <path class="st1" d="M33.9,129.1l-1.1-1.5c-.1,0-.2,0-.3,0h-1.2v1.5h-.7v-4.9h1.9c.6,0,1.1.2,1.5.5.4.3.5.7.5,1.3s0,.7-.3,1c-.2.3-.5.5-.8.6l1.2,1.7h-.8ZM33.5,126.8c.2-.2.4-.5.4-.8s-.1-.6-.4-.8c-.2-.2-.6-.3-1-.3h-1.2v2.2h1.2c.4,0,.8,0,1-.3"/>
        <polygon class="st1" points="37.2 127 36.3 127.9 36.3 129.1 35.6 129.1 35.6 124.2 36.3 124.2 36.3 127 39 124.2 39.8 124.2 37.7 126.4 39.9 129.1 39.1 129.1 37.2 127"/>
        <polygon class="st1" points="44.2 128.5 44.2 129.1 40.7 129.1 40.7 124.2 44.1 124.2 44.1 124.8 41.4 124.8 41.4 126.4 43.8 126.4 43.8 126.9 41.4 126.9 41.4 128.5 44.2 128.5"/>
        <polygon class="st1" points="46.4 124.8 44.7 124.8 44.7 124.2 48.8 124.2 48.8 124.8 47.1 124.8 47.1 129.1 46.4 129.1 46.4 124.8"/>
        <path class="st1" d="M50,129c-.3-.1-.6-.3-.8-.5l.2-.3c.2.2.4.3.7.4.3.1.6.2.9.2.5,0,.8,0,1.1-.3.2-.2.4-.4.4-.7s0-.4-.2-.5c-.1-.1-.3-.2-.5-.3-.2,0-.4-.1-.8-.2-.4,0-.7-.2-.9-.3-.2,0-.4-.2-.6-.4-.2-.2-.2-.4-.2-.7s0-.5.2-.7c.1-.2.3-.4.6-.5.3-.1.6-.2,1-.2s.5,0,.8.1c.3,0,.5.2.7.3v.3c-.3-.1-.5-.2-.8-.3-.2,0-.5-.1-.7-.1-.5,0-.8,0-1,.3-.2.2-.4.4-.4.7s0,.4.2.5c.1.1.3.2.5.3.2,0,.4.1.8.2.4,0,.6.2.9.3.2,0,.4.2.6.4.2.2.2.4.2.7s0,.5-.2.7c-.1.2-.3.4-.6.5-.3.1-.6.2-1,.2s-.7,0-1-.2"/>
        <polygon class="st1" points="57.2 128.8 57.2 129.1 53.8 129.1 53.8 124.2 57.1 124.2 57.1 124.6 54.2 124.6 54.2 126.5 56.8 126.5 56.8 126.8 54.2 126.8 54.2 128.8 57.2 128.8"/>
        <polygon class="st1" points="62.3 124.2 62.3 129.1 62 129.1 58.6 124.9 58.6 129.1 58.3 129.1 58.3 124.2 58.6 124.2 61.9 128.5 61.9 124.2 62.3 124.2"/>
        <path class="st1" d="M64.2,129c-.3-.1-.6-.3-.8-.5l.2-.3c.2.2.4.3.7.4.3.1.6.2.9.2.5,0,.8,0,1.1-.3.2-.2.4-.4.4-.7s0-.4-.2-.5c-.1-.1-.3-.2-.5-.3-.2,0-.4-.1-.8-.2-.4,0-.7-.2-.9-.3-.2,0-.4-.2-.6-.4-.2-.2-.2-.4-.2-.7s0-.5.2-.7c.1-.2.3-.4.6-.5.3-.1.6-.2,1-.2s.5,0,.8.1c.3,0,.5.2.7.3v.3c-.3-.1-.5-.2-.8-.3-.2,0-.5-.1-.7-.1-.5,0-.8,0-1,.3-.2.2-.4.4-.4.7s0,.4.2.5c.1.1.3.2.5.3.2,0,.4.1.8.2.4,0,.6.2.9.3.2,0,.4.2.6.4.2.2.2.4.2.7s0,.5-.2.7c-.1.2-.3.4-.6.5-.3.1-.6.2-1,.2s-.7,0-1-.2"/>
        <polygon class="st1" points="71.5 128.8 71.5 129.1 68.1 129.1 68.1 124.2 71.4 124.2 71.4 124.6 68.4 124.6 68.4 126.5 71 126.5 71 126.8 68.4 126.8 68.4 128.8 71.5 128.8"/>
      </g>
    </g>
  </g>
  <g class="st3">
    <g class="st4">
      <g class="st6">
        <path class="st1" d="M299.5,35.3c-5.9-4.2-11.9-8.5-17.8-12.7-10.3-7.5-20.4-15.2-30.3-23.1-6.4-5.3-12.5-11-18.2-17.1-8.6-8.8-15.2-19-19.8-30.5-8.2-20.6-6.4-40.2,5.4-58.8,8.1-12.2,17.9-23.1,29.2-32.5,18.4-15.4,38.3-28.6,59.8-39.8,22.4-11.8,45.9-20.8,70.6-27.2v-23.3h-149.1c1.9,1.3,3.8,2.8,5.6,4.5,14,12.8,18.8,29.2,14.4,49.1-2.4,10.3-6.5,19.9-12.4,28.9-4.7,7.3-10.1,14.2-16.2,20.6-15.7,17-33.5,31.1-53.4,42.4-25.6,14.6-52.3,24.8-80,30.7V61.3h246.9c-2.8-2.5-5.7-4.9-8.6-7.2-8.6-6.3-17.3-12.6-26.2-18.9"/>
        <path class="st1" d="M160.3-229.8h-73v44.9c11.6-9.1,23.7-17.8,36.2-25.8,11.7-7.6,24-14,36.8-19.1"/>
        <path class="st1" d="M375.2-190.3c-42.6,12.8-81.2,33.3-115.7,61.4-9.2,7.4-17.4,15.7-24.7,25.1-6.5,8-11.3,17-14.3,26.9-1.9,6.7-2.4,13.2-1.5,19.5,1,6.4,3.1,12.5,6.5,18.4,3,5.7,6.8,10.7,11.4,15.1.2.2.5.5.7.7,6.4,6.3,13.1,12.3,20,18,9.3,7.1,18.8,14.1,28.5,20.9,1.2.8,2.4,1.6,3.5,2.4,2.8,2.1,5.6,4.1,8.5,6,6.8,4.8,13.5,9.7,20.2,14.6,6.7,4.9,13.1,10,19.4,15.3,2.7,2.4,5.3,4.8,7.8,7.4h32.8v-252.6c-1.1.3-2.1.6-3.2,1"/>
        <path class="st1" d="M205.3-130.3c5.5-5.3,10.6-10.8,15.3-16.6,4.7-5.8,8.9-12,12.5-18.6,4.9-8.9,7.9-18.3,8.9-28.2.9-11-2.9-19.5-11.5-25.4-7.9-5.4-16.8-7.9-26.8-7.6-6.9.2-13.8,1.3-20.8,3.1-8.6,2.1-16.9,4.9-24.9,8.6-8,3.7-15.9,7.8-23.5,12.5-14.9,9.2-29.2,19.3-42.8,30.4-1.5,1.2-2.9,2.4-4.4,3.7v102.3c24.3-6.4,47.6-15.9,70.1-28.6,17.5-9.7,33.5-21.6,47.9-35.6"/>
        <path class="st1" d="M106.9,84.6c2.1,1.8,3.1,4.2,3.1,7.2s-1,5.5-3.1,7.2c-2.1,1.8-5,2.6-8.6,2.6h-7v8.6h-4v-28.3h11c3.7,0,6.5.9,8.6,2.6M104,96.5c1.3-1.1,2-2.7,2-4.7s-.7-3.6-2-4.7c-1.3-1.1-3.3-1.6-5.9-1.6h-6.9v12.7h6.9c2.6,0,4.5-.5,5.9-1.6"/>
        <path class="st1" d="M132.2,103.1h-15l-3.1,7.1h-4.2l12.8-28.3h4l12.8,28.3h-4.2l-3.1-7.1ZM130.8,99.9l-6.1-13.9-6.1,13.9h12.2Z"/>
        <path class="st1" d="M162.5,110.2l-6.1-8.7c-.8,0-1.3,0-1.8,0h-7v8.6h-4v-28.3h11c3.7,0,6.5.9,8.6,2.6,2.1,1.8,3.1,4.2,3.1,7.2s-.5,4-1.6,5.6c-1.1,1.5-2.6,2.7-4.6,3.4l6.7,9.5h-4.4ZM160.3,96.5c1.3-1.1,2-2.7,2-4.7s-.7-3.6-2-4.7c-1.3-1.1-3.3-1.6-5.9-1.6h-6.9v12.7h6.9c2.6,0,4.5-.6,5.9-1.7"/>
        <polygon class="st1" points="181.8 97.7 176.6 102.9 176.6 110.2 172.6 110.2 172.6 81.9 176.6 81.9 176.6 97.7 191.9 81.9 196.5 81.9 184.5 94.7 197.3 110.2 192.6 110.2 181.8 97.7"/>
        <polygon class="st1" points="221.9 106.7 221.9 110.2 201.4 110.2 201.4 81.9 221.3 81.9 221.3 85.5 205.4 85.5 205.4 94.1 219.6 94.1 219.6 97.6 205.4 97.6 205.4 106.7 221.9 106.7"/>
        <polygon class="st1" points="234.5 85.5 224.8 85.5 224.8 81.9 248.2 81.9 248.2 85.5 238.5 85.5 238.5 110.2 234.5 110.2 234.5 85.5"/>
        <path class="st1" d="M254.8,109.3c-1.9-.7-3.3-1.6-4.4-2.8l.9-1.5c1,1.1,2.3,1.9,4,2.6,1.7.7,3.5,1,5.3,1,2.7,0,4.7-.5,6.1-1.5,1.4-1,2.1-2.4,2.1-4s-.4-2.3-1.1-3c-.7-.8-1.6-1.3-2.7-1.7-1.1-.4-2.5-.8-4.4-1.3-2.1-.5-3.7-1-5-1.5-1.3-.5-2.3-1.2-3.2-2.2-.9-1-1.3-2.4-1.3-4.1s.4-2.6,1.1-3.8c.7-1.1,1.8-2.1,3.3-2.7,1.5-.7,3.4-1,5.6-1s3.1.2,4.6.7c1.5.5,2.8,1.1,3.9,1.9l-.8,1.7c-1.1-.8-2.4-1.4-3.7-1.8-1.4-.4-2.7-.6-4-.6-2.6,0-4.6.5-5.9,1.6-1.3,1.1-2,2.4-2,4.1s.4,2.3,1.1,3c.7.8,1.6,1.3,2.7,1.7,1.1.4,2.5.8,4.4,1.3,2.1.5,3.7,1,5,1.5,1.2.5,2.3,1.2,3.2,2.2.9,1,1.3,2.3,1.3,4s-.4,2.6-1.1,3.8c-.7,1.1-1.9,2-3.4,2.7-1.5.7-3.4,1-5.7,1s-4-.4-5.9-1.1"/>
        <polygon class="st1" points="296.7 108.4 296.7 110.2 277.2 110.2 277.2 81.9 296.1 81.9 296.1 83.8 279.2 83.8 279.2 94.9 294.3 94.9 294.3 96.8 279.2 96.8 279.2 108.4 296.7 108.4"/>
        <polygon class="st1" points="325.7 81.9 325.7 110.2 324 110.2 304.7 85.7 304.7 110.2 302.6 110.2 302.6 81.9 304.4 81.9 323.6 106.5 323.6 81.9 325.7 81.9"/>
        <path class="st1" d="M336.5,109.3c-1.9-.7-3.3-1.6-4.4-2.8l.9-1.5c1,1.1,2.3,1.9,4,2.6,1.7.7,3.5,1,5.3,1,2.7,0,4.7-.5,6.1-1.5,1.4-1,2.1-2.4,2.1-4s-.4-2.3-1.1-3c-.7-.8-1.6-1.3-2.7-1.7-1.1-.4-2.5-.8-4.4-1.3-2.1-.5-3.7-1-5-1.5-1.3-.5-2.3-1.2-3.2-2.2-.9-1-1.3-2.4-1.3-4.1s.4-2.6,1.1-3.8c.7-1.1,1.8-2.1,3.3-2.7,1.5-.7,3.4-1,5.6-1s3.1.2,4.6.7c1.5.5,2.8,1.1,3.9,1.9l-.8,1.7c-1.1-.8-2.4-1.4-3.7-1.8-1.4-.4-2.7-.6-4-.6-2.6,0-4.6.5-5.9,1.6-1.3,1.1-2,2.4-2,4.1s.4,2.3,1.1,3c.7.8,1.6,1.3,2.7,1.7,1.1.4,2.5.8,4.4,1.3,2.1.5,3.7,1,5,1.5,1.2.5,2.3,1.2,3.2,2.2.9,1,1.3,2.3,1.3,4s-.4,2.6-1.1,3.8c-.7,1.1-1.9,2-3.4,2.7-1.5.7-3.4,1-5.7,1s-4-.4-5.9-1.1"/>
        <polygon class="st1" points="378.4 108.4 378.4 110.2 358.9 110.2 358.9 81.9 377.8 81.9 377.8 83.8 360.9 83.8 360.9 94.9 376 94.9 376 96.8 360.9 96.8 360.9 108.4 378.4 108.4"/>
      </g>
    </g>
  </g>
</svg>